<svg width="200" height="200" viewBox="0 0 200 200" fill="none" xmlns="http://www.w3.org/2000/svg">
<path d="M30 22.2222C27.3478 22.2222 24.8043 23.3929 22.9289 25.4766C21.0536 27.5603 20 30.3865 20 33.3333V133.333C20 136.28 21.0536 139.106 22.9289 141.19C24.8043 143.274 27.3478 144.444 30 144.444H170C172.652 144.444 175.196 143.274 177.071 141.19C178.946 139.106 180 136.28 180 133.333V33.3333C180 30.3865 178.946 27.5603 177.071 25.4766C175.196 23.3929 172.652 22.2222 170 22.2222H30ZM30 0H170C177.956 0 185.587 3.51189 191.213 9.76311C196.839 16.0143 200 24.4928 200 33.3333V133.333C200 142.174 196.839 150.652 191.213 156.904C185.587 163.155 177.956 166.667 170 166.667H30C22.0435 166.667 14.4129 163.155 8.7868 156.904C3.16071 150.652 0 142.174 0 133.333L0 33.3333C0 24.4928 3.16071 16.0143 8.7868 9.76311C14.4129 3.51189 22.0435 0 30 0ZM70 177.778H130C132.652 177.778 135.196 178.948 137.071 181.032C138.946 183.116 140 185.942 140 188.889C140 191.836 138.946 194.662 137.071 196.746C135.196 198.829 132.652 200 130 200H70C67.3478 200 64.8043 198.829 62.9289 196.746C61.0536 194.662 60 191.836 60 188.889C60 185.942 61.0536 183.116 62.9289 181.032C64.8043 178.948 67.3478 177.778 70 177.778Z" fill="#F8F8F8"/>
</svg>
